<?xml version="1.0" encoding="UTF-8"?>
<svg xmlns="http://www.w3.org/2000/svg" xmlns:xlink="http://www.w3.org/1999/xlink" width="24pt" height="24pt" viewBox="0 0 24 24" version="1.1">
<g id="surface1">
<path style=" stroke:none;fill-rule:nonzero;fill:#4CAF50;fill-opacity:1;" d="M 20.5 5 L 12.5 5 L 12.5 19 L 20.5 19 C 20.777344 19 21 18.777344 21 18.5 L 21 5.5 C 21 5.222656 20.777344 5 20.5 5 Z "/>
<path style=" stroke:none;fill-rule:nonzero;fill:#FFFFFF;fill-opacity:1;" d="M 16 7.5 L 19.5 7.5 L 19.5 9 L 16 9 Z "/>
<path style=" stroke:none;fill-rule:nonzero;fill:#FFFFFF;fill-opacity:1;" d="M 16 12.5 L 19.5 12.5 L 19.5 14 L 16 14 Z "/>
<path style=" stroke:none;fill-rule:nonzero;fill:#FFFFFF;fill-opacity:1;" d="M 16 15 L 19.5 15 L 19.5 16.5 L 16 16.5 Z "/>
<path style=" stroke:none;fill-rule:nonzero;fill:#FFFFFF;fill-opacity:1;" d="M 16 10 L 19.5 10 L 19.5 11.5 L 16 11.5 Z "/>
<path style=" stroke:none;fill-rule:nonzero;fill:#FFFFFF;fill-opacity:1;" d="M 12.5 7.5 L 15 7.5 L 15 9 L 12.5 9 Z "/>
<path style=" stroke:none;fill-rule:nonzero;fill:#FFFFFF;fill-opacity:1;" d="M 12.5 12.5 L 15 12.5 L 15 14 L 12.5 14 Z "/>
<path style=" stroke:none;fill-rule:nonzero;fill:#FFFFFF;fill-opacity:1;" d="M 12.5 15 L 15 15 L 15 16.5 L 12.5 16.5 Z "/>
<path style=" stroke:none;fill-rule:nonzero;fill:#FFFFFF;fill-opacity:1;" d="M 12.5 10 L 15 10 L 15 11.5 L 12.5 11.5 Z "/>
<path style=" stroke:none;fill-rule:nonzero;fill:#2E7D32;fill-opacity:1;" d="M 13.5 21 L 3 19 L 3 5 L 13.5 3 Z "/>
<path style=" stroke:none;fill-rule:nonzero;fill:#FFFFFF;fill-opacity:1;" d="M 9.566406 15.5 L 8.359375 13.21875 C 8.3125 13.132813 8.265625 12.976563 8.21875 12.75 L 8.199219 12.75 C 8.175781 12.859375 8.121094 13.019531 8.035156 13.238281 L 6.824219 15.5 L 4.949219 15.5 L 7.179688 12 L 5.136719 8.5 L 7.054688 8.5 L 8.054688 10.597656 C 8.132813 10.761719 8.203125 10.960938 8.265625 11.1875 L 8.285156 11.1875 C 8.324219 11.050781 8.398438 10.847656 8.503906 10.578125 L 9.617188 8.5 L 11.375 8.5 L 9.277344 11.96875 L 11.433594 15.5 Z "/>
</g>
</svg>
