<?xml version="1.0" encoding="UTF-8"?>
<svg xmlns="http://www.w3.org/2000/svg" xmlns:xlink="http://www.w3.org/1999/xlink" width="100pt" height="100pt" viewBox="0 0 100 100" version="1.1">
<g id="surface1">
<path style=" stroke:none;fill-rule:nonzero;fill:#5B5B5B;fill-opacity:1;" d="M 49.601563 5.953125 C 49.300781 5.953125 49.015625 6 48.734375 6.136719 L 1.117188 29.949219 C 0.140625 30.4375 -0.300781 31.636719 0.1875 32.613281 C 0.675781 33.589844 1.867188 34.03125 2.851563 33.542969 L 49.601563 10.167969 L 96.355469 33.542969 C 96.640625 33.683594 96.925781 33.730469 97.222656 33.730469 C 97.949219 33.730469 98.671875 33.3125 99.019531 32.613281 C 99.507813 31.636719 99.066406 30.4375 98.089844 29.949219 L 50.472656 6.136719 C 50.191406 6 49.90625 5.953125 49.601563 5.953125 Z M 27.777344 31.808594 C 12.90625 31.808594 5.101563 37.753906 4.773438 38.007813 C 4.300781 38.371094 4.03125 38.898438 4.03125 39.496094 L 4.03125 81.347656 L 3.96875 81.347656 L 3.96875 82.402344 C 4.371094 82.101563 4.648438 81.875 4.773438 81.785156 C 5.511719 81.195313 13.160156 75.457031 27.777344 75.457031 C 37.449219 75.457031 44.09375 77.984375 47.679688 79.859375 L 47.679688 36.148438 C 44.101563 34.320313 37.457031 31.808594 27.777344 31.808594 Z M 71.429688 31.808594 C 61.75 31.808594 55.105469 34.320313 51.523438 36.148438 L 51.523438 79.859375 C 55.113281 77.984375 61.757813 75.457031 71.429688 75.457031 C 86.496094 75.457031 94.175781 81.582031 94.492188 81.84375 C 94.695313 82 94.914063 82.140625 95.175781 82.339844 L 95.175781 39.496094 C 95.175781 38.898438 94.90625 38.371094 94.433594 38.007813 C 94.105469 37.753906 86.300781 31.808594 71.429688 31.808594 Z M 27.777344 79.304688 C 14.191406 79.304688 7.261719 84.765625 7.191406 84.820313 C 7.191406 84.820313 5.222656 86.316406 3.96875 87.363281 L 3.96875 89.285156 C 3.96875 90.386719 4.859375 91.269531 5.953125 91.269531 L 40.613281 91.269531 C 41.796875 92.765625 44.535156 95.238281 49.601563 95.238281 C 54.671875 95.238281 57.40625 92.765625 58.59375 91.269531 L 93.253906 91.269531 C 94.355469 91.269531 95.238281 90.386719 95.238281 89.285156 L 95.238281 87.363281 C 94.183594 86.511719 93.007813 85.636719 92.074219 84.945313 C 92.023438 84.90625 92 84.804688 91.953125 84.757813 C 91.074219 84.109375 84.15625 79.304688 71.429688 79.304688 C 57.84375 79.304688 50.914063 84.765625 50.84375 84.820313 C 50.804688 84.851563 50.757813 84.859375 50.71875 84.882813 C 50.625 84.945313 50.511719 85.023438 50.410156 85.070313 C 50.378906 85.085938 50.378906 85.117188 50.347656 85.132813 C 50.121094 85.222656 49.90625 85.246094 49.664063 85.253906 C 49.648438 85.253906 49.617188 85.253906 49.601563 85.253906 C 49.339844 85.253906 49.097656 85.179688 48.859375 85.070313 C 48.835938 85.0625 48.757813 85.085938 48.734375 85.070313 C 48.640625 85.03125 48.625 85 48.550781 84.945313 C 48.503906 84.914063 48.410156 84.859375 48.363281 84.820313 C 48.300781 84.773438 41.363281 79.304688 27.777344 79.304688 Z "/>
</g>
</svg>
