<?xml version="1.0" encoding="UTF-8"?>
<svg xmlns="http://www.w3.org/2000/svg" xmlns:xlink="http://www.w3.org/1999/xlink" width="24pt" height="24pt" viewBox="0 0 24 24" version="1.1">
<g id="surface1">
<path style=" stroke:none;fill-rule:nonzero;fill:#FF5722;fill-opacity:1;" d="M 20 22.5 L 4 22.5 L 4 1.5 L 15 1.5 L 20 6.5 Z "/>
<path style=" stroke:none;fill-rule:nonzero;fill:#FBE9E7;fill-opacity:1;" d="M 19.25 7 L 14.5 7 L 14.5 2.25 Z "/>
<path style=" stroke:none;fill-rule:nonzero;fill:#FFEBEE;fill-opacity:1;" d="M 7.90625 14.75 L 7.90625 16.5 L 6.898438 16.5 L 6.898438 11.523438 L 8.59375 11.523438 C 9.085938 11.523438 9.480469 11.675781 9.773438 11.980469 C 10.066406 12.285156 10.210938 12.683594 10.210938 13.171875 C 10.210938 13.660156 10.066406 14.042969 9.777344 14.328125 C 9.488281 14.609375 9.085938 14.75 8.574219 14.75 Z M 7.90625 13.914063 L 8.59375 13.914063 C 8.785156 13.914063 8.933594 13.851563 9.039063 13.722656 C 9.144531 13.597656 9.195313 13.417969 9.195313 13.175781 C 9.195313 12.929688 9.144531 12.730469 9.035156 12.585938 C 8.929688 12.4375 8.785156 12.363281 8.605469 12.359375 L 7.90625 12.359375 Z "/>
<path style=" stroke:none;fill-rule:nonzero;fill:#FFEBEE;fill-opacity:1;" d="M 10.882813 16.5 L 10.882813 11.523438 L 12.199219 11.523438 C 12.777344 11.523438 13.242188 11.707031 13.585938 12.078125 C 13.933594 12.445313 14.109375 12.953125 14.117188 13.59375 L 14.117188 14.402344 C 14.117188 15.054688 13.941406 15.570313 13.597656 15.941406 C 13.253906 16.3125 12.777344 16.5 12.171875 16.5 Z M 11.886719 12.359375 L 11.886719 15.664063 L 12.1875 15.664063 C 12.523438 15.664063 12.757813 15.578125 12.894531 15.402344 C 13.03125 15.222656 13.101563 14.921875 13.109375 14.488281 L 13.109375 13.621094 C 13.109375 13.15625 13.046875 12.832031 12.914063 12.652344 C 12.785156 12.46875 12.566406 12.371094 12.253906 12.363281 L 11.886719 12.363281 Z "/>
<path style=" stroke:none;fill-rule:nonzero;fill:#FFEBEE;fill-opacity:1;" d="M 17.402344 14.46875 L 15.839844 14.46875 L 15.839844 16.5 L 14.835938 16.5 L 14.835938 11.523438 L 17.589844 11.523438 L 17.589844 12.359375 L 15.839844 12.359375 L 15.839844 13.636719 L 17.402344 13.636719 Z "/>
</g>
</svg>
