<?xml version="1.0" encoding="UTF-8"?>
<svg xmlns="http://www.w3.org/2000/svg" xmlns:xlink="http://www.w3.org/1999/xlink" width="20pt" height="20pt" viewBox="0 0 20 20" version="1.1">
<g id="surface1">
<path style=" stroke:none;fill-rule:nonzero;fill:#616161;fill-opacity:1;" d="M 1.667969 10.832031 L 18.332031 10.832031 L 18.332031 7.917969 C 18.332031 6.996094 17.585938 6.25 16.667969 6.25 L 3.332031 6.25 C 2.414063 6.25 1.667969 6.996094 1.667969 7.917969 Z "/>
<path style=" stroke:none;fill-rule:nonzero;fill:#424242;fill-opacity:1;" d="M 3.75 5 L 16.25 5 L 16.25 6.25 L 3.75 6.25 Z "/>
<path style=" stroke:none;fill-rule:nonzero;fill:#424242;fill-opacity:1;" d="M 3.332031 15.417969 L 16.667969 15.417969 C 17.585938 15.417969 18.332031 14.671875 18.332031 13.75 L 18.332031 10.417969 L 1.667969 10.417969 L 1.667969 13.75 C 1.667969 14.671875 2.414063 15.417969 3.332031 15.417969 "/>
<path style=" stroke:none;fill-rule:nonzero;fill:#00E676;fill-opacity:1;" d="M 16.25 7.917969 C 16.25 8.148438 16.4375 8.332031 16.667969 8.332031 C 16.898438 8.332031 17.082031 8.148438 17.082031 7.917969 C 17.082031 7.6875 16.898438 7.5 16.667969 7.5 C 16.4375 7.5 16.25 7.6875 16.25 7.917969 "/>
<path style=" stroke:none;fill-rule:nonzero;fill:#242424;fill-opacity:1;" d="M 15.625 13.332031 L 4.375 13.332031 C 4.03125 13.332031 3.75 13.054688 3.75 12.707031 C 3.75 12.363281 4.03125 12.082031 4.375 12.082031 L 15.625 12.082031 C 15.96875 12.082031 16.25 12.363281 16.25 12.707031 C 16.25 13.054688 15.96875 13.332031 15.625 13.332031 "/>
<path style=" stroke:none;fill-rule:nonzero;fill:#90CAF9;fill-opacity:1;" d="M 4.582031 2.082031 L 15.417969 2.082031 L 15.417969 6.25 L 4.582031 6.25 Z "/>
<path style=" stroke:none;fill-rule:nonzero;fill:#90CAF9;fill-opacity:1;" d="M 4.582031 13.332031 L 15.417969 13.332031 L 15.417969 17.917969 L 4.582031 17.917969 Z "/>
<path style=" stroke:none;fill-rule:nonzero;fill:#42A5F5;fill-opacity:1;" d="M 4.582031 12.5 L 15.417969 12.5 L 15.417969 13.332031 L 4.582031 13.332031 Z "/>
<path style=" stroke:none;fill-rule:nonzero;fill:#1976D2;fill-opacity:1;" d="M 6.667969 14.167969 L 13.75 14.167969 L 13.75 15 L 6.667969 15 Z "/>
<path style=" stroke:none;fill-rule:nonzero;fill:#1976D2;fill-opacity:1;" d="M 6.667969 15.832031 L 12.082031 15.832031 L 12.082031 16.667969 L 6.667969 16.667969 Z "/>
</g>
</svg>
